<svg width="400" height="400" xmlns="http://www.w3.org/2000/svg" viewBox="0 0 400 400">
  <defs>
    <radialGradient id="orangeGradient" cx="50%" cy="50%" r="50%">
      <stop offset="0%" style="stop-color:#ff8c00;stop-opacity:1" />
      <stop offset="100%" style="stop-color:#ff4500;stop-opacity:1" />
    </radialGradient>
  </defs>
  
  <!-- Background -->
  <rect width="400" height="400" fill="#f97316"/>
  
  <!-- Dragon Ball -->
  <circle cx="200" cy="200" r="80" fill="url(#orangeGradient)" stroke="#fff" stroke-width="3"/>
  
  <!-- Stars -->
  <g fill="#ff0000">
    <polygon points="200,140 205,155 220,155 208,167 213,182 200,170 187,182 192,167 180,155 195,155" />
    <polygon points="200,220 202,228 210,228 204,233 206,241 200,236 194,241 196,233 190,228 198,228" />
    <polygon points="220,180 222,188 230,188 224,193 226,201 220,196 214,201 216,193 210,188 218,188" />
    <polygon points="180,180 182,188 190,188 184,193 186,201 180,196 174,201 176,193 170,188 178,188" />
  </g>
  
  <!-- Text -->
  <text x="200" y="320" text-anchor="middle" fill="white" font-family="Arial, sans-serif" font-size="24" font-weight="bold">
    Dragon Ball
  </text>
  <text x="200" y="350" text-anchor="middle" fill="white" font-family="Arial, sans-serif" font-size="16">
    Character
  </text>
</svg>
